<?xml version="1.0" encoding="UTF-8" standalone="no"?>
<!DOCTYPE svg PUBLIC "-//W3C//DTD SVG 1.1//EN" "http://www.w3.org/Graphics/SVG/1.1/DTD/svg11.dtd">
<svg width="100%" height="100%" viewBox="0 0 127 124" version="1.1" xmlns="http://www.w3.org/2000/svg" xmlns:xlink="http://www.w3.org/1999/xlink" xml:space="preserve" xmlns:serif="http://www.serif.com/" style="fill-rule:evenodd;clip-rule:evenodd;stroke-linejoin:round;stroke-miterlimit:1.41421;">
    <g id="Bloc-Logo">
        <path id="Fill-1" d="M54.8,4.1C25.7,8.1 3.7,32.8 3.7,62.1C3.7,91.4 25.7,116 54.8,120.1L54.8,70.7L14.9,70.7L14.9,52.8L54.8,52.8L54.8,4.1ZM58.5,67L58.5,124.2L56.4,124C24.5,120.7 0,94 0,62.1C0,30.2 24.5,3.6 56.5,0.2L58.5,0L58.5,56.5L18.7,56.5L18.7,67L58.5,67ZM72.2,120C101,115.7 122.6,91.2 122.6,62.1C122.6,33 101,8.5 72.2,4.2L72.2,52.8L112.1,52.8L112.1,70.7L72.2,70.7L72.2,120ZM68.5,56.5L68.5,0L70.6,0.2C102.3,3.8 126.4,30.4 126.4,62C126.4,93.7 102.3,120.2 70.6,123.8L68.5,124L68.5,67L108.4,67L108.4,56.5L68.5,56.5Z" style="fill:rgb(35,31,32);"/>
    </g>
</svg>
